<svg width="125" height="32" viewBox="0 0 125 32" fill="none" xmlns="http://www.w3.org/2000/svg">
<path d="M6.65354 19.9428L0 4.61914H3.64434L8.22871 16.0297L12.9288 4.61914H16.3473L9.97325 19.9428H6.65354Z" fill="white"/>
<path d="M18.0752 4.61914H22.1289L28.3815 15.6242L28.2235 4.61914H31.5037V19.9428H27.7775L21.2171 8.35082L21.3639 19.9428H18.0752V4.61914Z" fill="white"/>
<path d="M35.5684 4.61914H42.5493C45.009 4.61914 46.8223 5.26283 47.989 6.5502C49.1577 7.83474 49.7449 9.83952 49.7449 12.5504C49.7757 13.7811 49.5756 15.0066 49.1549 16.163C48.8411 16.9848 48.3466 17.7248 47.7082 18.3278C47.0698 18.9307 46.3041 19.381 45.4682 19.6451C44.5452 19.8741 43.5957 19.9771 42.6453 19.9514H35.5684V4.61914ZM42.4844 7.28463H38.7723V17.2745H42.4816C43.893 17.2745 44.8867 16.9201 45.4259 16.2027C45.965 15.4852 46.2276 14.178 46.2276 12.2782C46.2276 10.3783 45.9679 9.08808 45.4259 8.365C44.8839 7.64191 43.9043 7.28463 42.4816 7.28463" fill="white"/>
<path d="M61.7901 4.61914H58.4365V19.94H61.7901V4.61914Z" fill="white"/>
<path d="M65.666 4.61914H73.5701C75.4163 4.61914 76.7665 4.99061 77.6209 5.73354C78.4819 6.47364 78.9053 7.63908 78.9053 9.22703C78.9502 10.2448 78.6746 11.2509 78.1178 12.1023C77.5676 12.8601 76.7475 13.3751 75.8284 13.54L79.6308 19.9428H76.0119L72.6498 13.9171H68.8785V19.9428H65.666V4.61914ZM72.8023 7.34417H68.8785V11.2035H72.8023C73.8721 11.2035 74.6117 11.0645 75.0267 10.7668C75.4417 10.469 75.6477 9.97563 75.6477 9.26956C75.6477 8.56349 75.4445 8.07293 75.0408 7.7837C74.6371 7.49446 73.8919 7.34417 72.8023 7.34417Z" fill="white"/>
<path d="M88.7491 7.28393C87.5861 7.28393 86.7138 7.56749 86.1238 8.16014C85.5339 8.75278 85.2036 9.63466 85.1415 10.8398L94.0166 10.854V13.5166H85.1217C85.1217 14.855 85.404 15.8106 85.9686 16.3948C86.5332 16.9789 87.4506 17.2738 88.7519 17.2738H94.0195V19.9421H88.591C87.6406 19.9681 86.6911 19.8651 85.7681 19.6359C84.9324 19.3742 84.1665 18.9257 83.5279 18.3241C82.8894 17.7225 82.3949 16.9834 82.0815 16.1623C81.6682 15.007 81.4692 13.7855 81.4943 12.5582C81.4943 9.84733 82.0815 7.84255 83.2558 6.55801C84.4301 5.27347 86.2339 4.62695 88.687 4.62695H94.0166V7.29244L88.7491 7.28393Z" fill="white"/>
<path d="M104.328 7.23289C103.001 7.23289 102.047 7.65823 101.454 8.50325C100.861 9.34827 100.585 10.7491 100.585 12.6858C100.585 14.3673 100.867 15.5526 101.432 16.2388C101.996 16.9251 102.962 17.2738 104.336 17.2738H109.612V19.9422H104.164C103.214 19.9678 102.264 19.8648 101.341 19.6359C100.509 19.3716 99.7464 18.922 99.111 18.3206C98.4756 17.7191 97.9836 16.9813 97.6715 16.1623C97.2569 15.0074 97.0578 13.7856 97.0844 12.5582C97.0844 9.84734 97.6715 7.84255 98.8374 6.55801C100.003 5.27348 101.821 4.62695 104.277 4.62695H109.615V7.2414L104.328 7.23289Z" fill="white"/>
<path d="M116.418 7.30983H111.492V4.63867H124.689V7.30983H119.741V19.9425H116.418V7.30983Z" fill="white"/>
<path d="M35.5684 24.616V21.409H44.164C44.164 21.409 44.2261 21.409 44.4463 21.409C44.7412 21.3864 45.0344 21.3457 45.3242 21.287C46.2675 21.1095 47.1766 20.7821 48.0173 20.3172C49.9058 19.183 51.7745 17.3313 51.8197 12.644V11.989C51.7887 7.87452 50.3292 5.96615 48.7145 4.76668C47.4431 3.89073 45.9681 3.35939 44.4322 3.2241C44.2233 3.20709 44.1499 3.20709 44.1499 3.20709H35.5684V0H44.1753C46.0653 0.0712119 47.9118 0.590051 49.5642 1.51422C52.2968 2.99158 55.0491 6.33478 55.0039 11.989V12.6299C55.0491 18.3011 52.2968 21.6273 49.5642 23.1018C47.9084 24.0277 46.0579 24.5466 44.164 24.616H35.5684Z" fill="white"/>
<path d="M8.18607 31.8899H7.62149L6.59961 27.9824H7.16419L7.90378 31.1612L8.77888 27.9824H9.34345L10.2214 31.1612L10.961 27.9824H11.5255L10.5065 31.8899H9.94191L9.08375 28.6403L8.18607 31.8899Z" fill="white"/>
<path d="M16.1131 27.9824V31.8899H15.5908V27.9824H16.1131Z" fill="white"/>
<path d="M23.1479 29.1246H22.6624C22.669 29.0011 22.6429 28.8781 22.5869 28.7681C22.5309 28.658 22.4469 28.5648 22.3434 28.4979C22.1494 28.3809 21.9259 28.3227 21.6998 28.3306C21.5053 28.3233 21.3119 28.3622 21.1352 28.444C21.0327 28.4969 20.9478 28.5788 20.8912 28.6796C20.8345 28.7804 20.8084 28.8956 20.8162 29.0111C20.8131 29.0761 20.8241 29.1409 20.8485 29.2011C20.8729 29.2614 20.91 29.3155 20.9573 29.3599C21.0481 29.4325 21.1561 29.4804 21.2707 29.4989L22.3998 29.7597C22.6358 29.8055 22.8524 29.9222 23.0209 30.0943C23.1955 30.2888 23.2867 30.5445 23.2749 30.8061C23.2844 30.9947 23.242 31.1824 23.1523 31.3484C23.0627 31.5145 22.9293 31.6525 22.7668 31.7475C22.4601 31.9219 22.1112 32.0073 21.759 31.9942C21.4878 32.002 21.2177 31.9577 20.963 31.8638C20.8212 31.8027 20.6905 31.7183 20.5762 31.6142C20.4381 31.4924 20.3332 31.3373 20.2714 31.1634C20.2127 30.989 20.1841 30.8058 20.1867 30.6218H20.675C20.666 30.7618 20.6929 30.9019 20.7532 31.0285C20.8135 31.1551 20.9052 31.264 21.0194 31.3449C21.2375 31.4808 21.4914 31.547 21.7477 31.5348C22.0259 31.5545 22.303 31.4839 22.5381 31.3335C22.6037 31.2808 22.6577 31.2151 22.6968 31.1404C22.7359 31.0658 22.7593 30.9838 22.7654 30.8997C22.7714 30.8156 22.7602 30.7311 22.7323 30.6516C22.7043 30.572 22.6604 30.4991 22.6031 30.4375C22.4018 30.3121 22.1786 30.2264 21.9453 30.1851L21.1408 30.0008C20.9589 29.9613 20.7875 29.8829 20.6383 29.7711C20.5331 29.6897 20.449 29.5841 20.393 29.4632C20.3369 29.3423 20.3107 29.2096 20.3165 29.0764C20.302 28.7728 20.4064 28.4756 20.6073 28.2484C20.7423 28.118 20.903 28.0174 21.0789 27.9529C21.2549 27.8885 21.4423 27.8616 21.6292 27.874C22.2276 27.874 22.6501 28.0281 22.8967 28.3363C23.07 28.5612 23.1589 28.8403 23.1479 29.1246Z" fill="white"/>
<path d="M27.4014 31.8894V27.9819H28.9737C29.1992 27.9719 29.4239 28.0136 29.6309 28.104C29.8378 28.1945 30.0214 28.3311 30.1678 28.5037C30.4771 28.8915 30.6338 29.3799 30.6082 29.8761C30.6265 30.3448 30.5067 30.8084 30.2638 31.2089C30.1251 31.4287 29.9307 31.6076 29.7005 31.7272C29.4704 31.8467 29.2127 31.9027 28.954 31.8894H27.4014ZM27.9236 28.4271V31.4329H28.9427C29.1015 31.4389 29.2595 31.4061 29.403 31.3375C29.5465 31.2689 29.6714 31.1664 29.7669 31.0387C29.9888 30.7042 30.0949 30.3056 30.069 29.9045C30.0961 29.5117 29.9885 29.1215 29.7641 28.7986C29.6614 28.6745 29.5315 28.576 29.3846 28.5106C29.2377 28.4452 29.0778 28.4147 28.9173 28.4215L27.9236 28.4271Z" fill="white"/>
<path d="M38.3656 29.9292C38.3797 30.4116 38.2392 30.8857 37.9648 31.2818C37.7851 31.5055 37.5579 31.686 37.2997 31.81C37.0415 31.934 36.759 31.9984 36.4729 31.9984C36.1867 31.9984 35.9042 31.934 35.646 31.81C35.3879 31.686 35.1606 31.5055 34.981 31.2818C34.7158 30.8831 34.5742 30.4144 34.5742 29.9349C34.5742 29.4554 34.7158 28.9866 34.981 28.5879C35.1609 28.3647 35.3883 28.1846 35.6464 28.0609C35.9045 27.9372 36.1869 27.873 36.4729 27.873C36.7588 27.873 37.0412 27.9372 37.2993 28.0609C37.5575 28.1846 37.7848 28.3647 37.9648 28.5879C38.2391 28.9798 38.3797 29.4504 38.3656 29.9292ZM37.8236 29.9292C37.8415 29.5209 37.7156 29.1193 37.4679 28.7949C37.3469 28.6479 37.1938 28.5307 37.0206 28.4526C36.8473 28.3744 36.6584 28.3373 36.4686 28.3441C36.2813 28.3366 36.0948 28.373 35.9239 28.4502C35.7529 28.5275 35.6021 28.6435 35.4834 28.7893C35.2449 29.1232 35.1166 29.5239 35.1166 29.9349C35.1166 30.3459 35.2449 30.7465 35.4834 31.0805C35.6083 31.2191 35.7608 31.33 35.931 31.4058C36.1012 31.4817 36.2853 31.5209 36.4714 31.5209C36.6576 31.5209 36.8417 31.4817 37.0119 31.4058C37.1821 31.33 37.3345 31.2191 37.4595 31.0805C37.715 30.7532 37.8452 30.3447 37.8264 29.9292H37.8236Z" fill="white"/>
<path d="M45.8267 31.8899H45.3157V28.6034L44.2205 31.8899H43.7011L42.6086 28.6119V31.8899H42.0977V27.9824H42.8457L43.9608 31.2831L45.0899 27.9824H45.8408L45.8267 31.8899Z" fill="white"/>
<path d="M54.5498 28.4503V27.9824H57.7143V28.4503H56.3903V31.8899H55.8737V28.4503H54.5498Z" fill="white"/>
<path d="M65.2088 29.9293C65.223 30.4116 65.0825 30.8858 64.808 31.2819C64.6281 31.5056 64.4006 31.6861 64.1422 31.8101C63.8838 31.9342 63.601 31.9985 63.3147 31.9985C63.0283 31.9985 62.7456 31.9342 62.4872 31.8101C62.2288 31.6861 62.0013 31.5056 61.8214 31.2819C61.5454 30.8852 61.403 30.4102 61.4149 29.9264C61.402 29.4486 61.5425 28.9794 61.8157 28.588C61.996 28.3647 62.2236 28.1846 62.4819 28.0609C62.7403 27.9372 63.0228 27.873 63.309 27.873C63.5952 27.873 63.8778 27.9372 64.1362 28.0609C64.3945 28.1846 64.6221 28.3647 64.8023 28.588C65.0776 28.9797 65.2201 29.45 65.2088 29.9293ZM64.6668 29.9293C64.6852 29.5204 64.5581 29.1184 64.3083 28.795C64.188 28.6479 64.0355 28.5306 63.8626 28.4524C63.6898 28.3742 63.5013 28.3371 63.3119 28.3442C63.1241 28.3367 62.9372 28.373 62.7658 28.4503C62.5944 28.5275 62.4431 28.6436 62.3238 28.7894C62.0861 29.1236 61.9583 29.5241 61.9583 29.9349C61.9583 30.3457 62.0861 30.7463 62.3238 31.0805C62.4488 31.2192 62.6012 31.3301 62.7714 31.4059C62.9416 31.4818 63.1257 31.521 63.3119 31.521C63.498 31.521 63.6821 31.4818 63.8523 31.4059C64.0225 31.3301 64.175 31.2192 64.2999 31.0805C64.5554 30.7532 64.6856 30.3448 64.6668 29.9293Z" fill="white"/>
<path d="M76.5961 29.1244H76.1078C76.1144 29.001 76.0884 28.878 76.0323 28.7679C75.9763 28.6578 75.8923 28.5646 75.7888 28.4977C75.5945 28.3814 75.3712 28.3234 75.1452 28.3304C74.9508 28.3236 74.7574 28.3624 74.5806 28.4439C74.4789 28.4974 74.3948 28.5796 74.3387 28.6803C74.2826 28.7809 74.2568 28.8958 74.2644 29.011C74.2608 29.076 74.2715 29.141 74.2959 29.2013C74.3204 29.2616 74.3578 29.3158 74.4056 29.3598C74.4964 29.4324 74.6043 29.4802 74.7189 29.4987L75.8481 29.7596C76.0838 29.806 76.3002 29.9226 76.4691 30.0942C76.6437 30.2886 76.735 30.5443 76.7232 30.8059C76.7326 30.9946 76.6902 31.1822 76.6006 31.3482C76.511 31.5143 76.3776 31.6524 76.215 31.7474C75.9083 31.9218 75.5595 32.0072 75.2073 31.9941C74.9361 32.0018 74.6659 31.9575 74.4112 31.8636C74.2695 31.8025 74.1388 31.7182 74.0245 31.6141C73.8864 31.4923 73.7814 31.3371 73.7196 31.1632C73.6609 30.9888 73.6323 30.8057 73.6349 30.6216H74.1233C74.1142 30.7617 74.1412 30.9017 74.2015 31.0283C74.2618 31.1549 74.3534 31.2639 74.4677 31.3447C74.6857 31.4806 74.9397 31.5469 75.196 31.5347C75.4741 31.5544 75.7512 31.4838 75.9864 31.3333C76.0601 31.2819 76.1198 31.2125 76.1597 31.1317C76.1997 31.0509 76.2187 30.9613 76.215 30.8711C76.2219 30.7909 76.2105 30.7101 76.1816 30.6349C76.1528 30.5597 76.1072 30.4921 76.0485 30.4373C75.8475 30.3114 75.6241 30.2257 75.3908 30.1849L74.5891 30.0006C74.4069 29.9617 74.2354 29.8833 74.0866 29.7709C73.9814 29.6896 73.8972 29.584 73.8412 29.463C73.7852 29.3421 73.759 29.2094 73.7648 29.0762C73.7595 28.9236 73.7842 28.7714 73.8375 28.6283C73.8908 28.4853 73.9716 28.3542 74.0753 28.2425C74.2098 28.1143 74.3693 28.0153 74.5437 27.9519C74.7181 27.8885 74.9036 27.8619 75.0887 27.8739C75.6872 27.8739 76.1078 28.027 76.3562 28.3361C76.5255 28.5626 76.6104 28.8415 76.5961 29.1244Z" fill="white"/>
<path d="M83.3398 27.9824H83.862V30.5175C83.8705 30.7074 83.8414 30.8972 83.7765 31.0758C83.7116 31.2544 83.6121 31.4183 83.4838 31.5581C83.3283 31.7108 83.1428 31.8291 82.939 31.9052C82.7353 31.9814 82.518 32.0139 82.301 32.0005C82.0909 32.0136 81.8805 31.982 81.6835 31.9077C81.4864 31.8335 81.3073 31.7182 81.1577 31.5695C80.9168 31.2992 80.7903 30.9452 80.8048 30.5827V27.9824H81.3271V30.4409C81.3144 30.5971 81.3359 30.7541 81.39 30.9011C81.4442 31.048 81.5296 31.1813 81.6404 31.2916C81.8286 31.448 82.0683 31.528 82.3123 31.5156C82.5631 31.5283 82.8106 31.4532 83.0123 31.3029C83.1275 31.1953 83.2168 31.0628 83.2735 30.9154C83.3302 30.7681 83.3529 30.6097 83.3398 30.4522V27.9824Z" fill="white"/>
<path d="M91.1796 29.1578H90.6715C90.6501 29.0197 90.5982 28.8881 90.5195 28.7728C90.4409 28.6575 90.3375 28.5614 90.217 28.4914C90.0236 28.3877 89.8067 28.3359 89.5875 28.3411C89.4176 28.3348 89.2483 28.366 89.0917 28.4327C88.9351 28.4993 88.7951 28.5997 88.6814 28.7268C88.4169 29.0561 88.284 29.4726 88.3088 29.8951C88.284 30.3005 88.3824 30.704 88.591 31.052C88.7047 31.2106 88.8572 31.337 89.0337 31.4189C89.2103 31.5009 89.4049 31.5357 89.5988 31.5199C89.8201 31.5236 90.0367 31.456 90.217 31.3271C90.4886 31.11 90.6666 30.7962 90.7138 30.4508H91.2248C91.1787 30.8849 90.9783 31.2877 90.6602 31.5851C90.3469 31.8559 89.9442 31.9994 89.5311 31.9878C89.3073 31.9955 89.0843 31.9569 88.876 31.8745C88.6677 31.792 88.4785 31.6675 88.3201 31.5085C88.1273 31.2898 87.9796 31.0348 87.8856 30.7583C87.7916 30.4819 87.7531 30.1894 87.7724 29.8979C87.7479 29.363 87.9231 28.8382 88.2636 28.4262C88.429 28.238 88.6343 28.0893 88.8644 27.9912C89.0944 27.893 89.3435 27.8479 89.5932 27.8591C90.0105 27.8414 90.419 27.9833 90.7364 28.2561C90.9933 28.4888 91.1519 28.8114 91.1796 29.1578Z" fill="white"/>
<path d="M98.5439 29.1578H98.0358C98.015 29.0195 97.9633 28.8877 97.8846 28.7723C97.8059 28.6569 97.7022 28.5609 97.5813 28.4914C97.3879 28.3877 97.171 28.3359 96.9518 28.3411C96.7819 28.3348 96.6126 28.366 96.456 28.4327C96.2994 28.4993 96.1593 28.5997 96.0456 28.7268C95.7811 29.0561 95.6483 29.4726 95.673 29.8951C95.6497 30.3004 95.748 30.7034 95.9553 31.052C96.0701 31.2094 96.2228 31.3349 96.399 31.4167C96.5753 31.4985 96.7694 31.534 96.9631 31.5199C97.1844 31.5236 97.401 31.456 97.5813 31.3271C97.8529 31.11 98.0309 30.7962 98.0781 30.4508H98.5891C98.5433 30.885 98.3428 31.2878 98.0245 31.5851C97.7107 31.8551 97.3084 31.9986 96.8953 31.9878C96.6716 31.9953 96.4487 31.9567 96.2404 31.8742C96.0321 31.7918 95.8428 31.6673 95.6843 31.5085C95.4915 31.2898 95.3439 31.0348 95.2499 30.7583C95.1559 30.4819 95.1174 30.1894 95.1367 29.8979C95.1122 29.363 95.2874 28.8382 95.6279 28.4262C95.7933 28.238 95.9985 28.0893 96.2286 27.9912C96.4587 27.893 96.7077 27.8479 96.9574 27.8591C97.3748 27.8414 97.7833 27.9833 98.1007 28.2561C98.3586 28.4881 98.5173 28.8111 98.5439 29.1578Z" fill="white"/>
<path d="M105.593 31.422V31.8899H102.722V27.9824H105.576V28.4503H103.269V29.6469H105.392V30.1148H103.269V31.422H105.593Z" fill="white"/>
<path d="M112.568 29.1245H112.069C112.075 29.001 112.049 28.878 111.993 28.768C111.937 28.6579 111.853 28.5647 111.75 28.4978C111.556 28.3812 111.332 28.3231 111.106 28.3305C110.912 28.3237 110.718 28.3625 110.542 28.4439C110.44 28.4975 110.356 28.5796 110.3 28.6803C110.244 28.781 110.218 28.8959 110.225 29.011C110.222 29.0761 110.232 29.1411 110.257 29.2014C110.281 29.2617 110.319 29.3158 110.367 29.3598C110.457 29.4324 110.565 29.4803 110.68 29.4988L111.809 29.7596C112.045 29.8061 112.261 29.9226 112.43 30.0943C112.605 30.2887 112.696 30.5444 112.684 30.806C112.694 30.9946 112.651 31.1823 112.562 31.3483C112.472 31.5144 112.339 31.6524 112.176 31.7474C111.869 31.9218 111.52 32.0072 111.168 31.9941C110.897 32.0019 110.627 31.9576 110.372 31.8637C110.23 31.8026 110.1 31.7182 109.985 31.6141C109.847 31.4923 109.742 31.3372 109.681 31.1633C109.622 30.9889 109.593 30.8057 109.596 30.6217H110.081C110.072 30.762 110.1 30.9024 110.16 31.029C110.221 31.1557 110.314 31.2645 110.429 31.3448C110.647 31.4807 110.901 31.5469 111.157 31.5347C111.435 31.5544 111.712 31.4839 111.947 31.3334C112.021 31.2819 112.081 31.2126 112.121 31.1318C112.161 31.051 112.18 30.9614 112.176 30.8712C112.183 30.7909 112.171 30.7101 112.143 30.635C112.114 30.5598 112.068 30.4922 112.009 30.4374C111.808 30.3115 111.585 30.2258 111.352 30.185L110.55 30.0007C110.367 29.9606 110.195 29.8823 110.045 29.771C109.941 29.6883 109.858 29.5823 109.803 29.4617C109.748 29.341 109.721 29.209 109.726 29.0763C109.72 28.9236 109.745 28.7714 109.798 28.6284C109.852 28.4853 109.933 28.3543 110.036 28.2426C110.172 28.112 110.333 28.0113 110.509 27.9468C110.686 27.8824 110.874 27.8556 111.061 27.8683C111.657 27.8683 112.077 28.0214 112.328 28.3305C112.498 28.5591 112.583 28.8398 112.568 29.1245Z" fill="white"/>
<path d="M119.628 29.1245H119.143C119.149 29.0007 119.123 28.8774 119.066 28.7673C119.01 28.6571 118.925 28.5641 118.821 28.4978C118.627 28.3808 118.403 28.3227 118.177 28.3305C117.983 28.3233 117.789 28.3621 117.613 28.4439C117.511 28.4974 117.426 28.5794 117.369 28.6801C117.313 28.7807 117.286 28.8957 117.294 29.011C117.29 29.076 117.301 29.1408 117.326 29.2011C117.35 29.2613 117.387 29.3155 117.435 29.3598C117.527 29.4323 117.635 29.4802 117.751 29.4988L118.866 29.7596C119.102 29.8054 119.318 29.9221 119.487 30.0943C119.662 30.2887 119.753 30.5444 119.741 30.806C119.75 30.9946 119.708 31.1823 119.618 31.3483C119.529 31.5144 119.395 31.6524 119.233 31.7474C118.926 31.9221 118.577 32.0075 118.225 31.9941C117.954 32.0017 117.684 31.9574 117.429 31.8637C117.288 31.8019 117.157 31.7177 117.042 31.6141C116.906 31.491 116.801 31.3362 116.737 31.1633C116.68 30.9887 116.652 30.8056 116.656 30.6217H117.15C117.141 30.762 117.168 30.9024 117.229 31.029C117.289 31.1557 117.382 31.2645 117.497 31.3448C117.714 31.481 117.967 31.5473 118.222 31.5347C118.501 31.5538 118.779 31.4833 119.015 31.3334C119.089 31.2818 119.148 31.2123 119.188 31.1315C119.227 31.0507 119.246 30.9611 119.241 30.8712C119.249 30.7911 119.238 30.7104 119.21 30.6352C119.181 30.56 119.136 30.4924 119.078 30.4374C118.876 30.312 118.653 30.2264 118.42 30.185L117.615 30.0007C117.434 29.9606 117.262 29.8823 117.113 29.771C117.008 29.6896 116.923 29.584 116.867 29.4631C116.811 29.3422 116.785 29.2095 116.791 29.0763C116.786 28.9236 116.81 28.7714 116.864 28.6284C116.917 28.4853 116.998 28.3543 117.102 28.2426C117.237 28.112 117.398 28.0113 117.575 27.9468C117.751 27.8824 117.939 27.8556 118.126 27.8683C118.721 27.8683 119.143 28.0224 119.394 28.3305C119.562 28.5593 119.645 28.8404 119.628 29.1245Z" fill="white"/>
</svg>
